<?xml version="1.0" encoding="UTF-8" standalone="no"?>
<!DOCTYPE svg PUBLIC "-//W3C//DTD SVG 1.1//EN"
 "http://www.w3.org/Graphics/SVG/1.1/DTD/svg11.dtd">
<!-- Generated by graphviz version 2.38.0 (20140413.2041)
 -->
<!-- Title: dependency&#45;cruiser output Pages: 1 -->
<svg width="247pt" height="136pt"
 viewBox="0.00 0.00 247.00 136.00" xmlns="http://www.w3.org/2000/svg" xmlns:xlink="http://www.w3.org/1999/xlink">
<g id="graph0" class="graph" transform="scale(1 1) rotate(0) translate(4 132)">
<title>dependency&#45;cruiser output</title>
<g id="clust1" class="cluster"><title>cluster_src</title>
<path fill="#ffffff" stroke="black" stroke-width="2" d="M45,-68C45,-68 219,-68 219,-68 225,-68 231,-74 231,-80 231,-80 231,-108 231,-108 231,-114 225,-120 219,-120 219,-120 45,-120 45,-120 39,-120 33,-114 33,-108 33,-108 33,-80 33,-80 33,-74 39,-68 45,-68"/>
<text text-anchor="middle" x="132" y="-108.8" font-family="Helvetica,sans-Serif" font-weight="bold" font-size="9.00">src</text>
</g>
<g id="clust2" class="cluster"><title>cluster_test</title>
<path fill="#ffffff" stroke="black" stroke-width="2" d="M20,-8C20,-8 116,-8 116,-8 122,-8 128,-14 128,-20 128,-20 128,-48 128,-48 128,-54 122,-60 116,-60 116,-60 20,-60 20,-60 14,-60 8,-54 8,-48 8,-48 8,-20 8,-20 8,-14 14,-8 20,-8"/>
<text text-anchor="middle" x="68" y="-48.8" font-family="Helvetica,sans-Serif" font-weight="bold" font-size="9.00">test</text>
</g>
<!-- src/app.js -->
<g id="node1" class="node"><title>src/app.js</title>
<g id="a_node1"><a xlink:href="src/app.js" xlink:title="app.js">
<path fill="#ffffcc" stroke="black" d="M89,-94C89,-94 47,-94 47,-94 44,-94 41,-91 41,-88 41,-88 41,-82 41,-82 41,-79 44,-76 47,-76 47,-76 89,-76 89,-76 92,-76 95,-79 95,-82 95,-82 95,-88 95,-88 95,-91 92,-94 89,-94"/>
<text text-anchor="middle" x="68" y="-82.8" font-family="Helvetica,sans-Serif" font-size="9.00">app.js</text>
</a>
</g>
</g>
<!-- src/arrayExtension.js -->
<g id="node2" class="node"><title>src/arrayExtension.js</title>
<g id="a_node2"><a xlink:href="src/arrayExtension.js" xlink:title="arrayExtension.js">
<path fill="#ffffcc" stroke="black" d="M217,-94C217,-94 142,-94 142,-94 139,-94 136,-91 136,-88 136,-88 136,-82 136,-82 136,-79 139,-76 142,-76 142,-76 217,-76 217,-76 220,-76 223,-79 223,-82 223,-82 223,-88 223,-88 223,-91 220,-94 217,-94"/>
<text text-anchor="middle" x="179.5" y="-82.8" font-family="Helvetica,sans-Serif" font-size="9.00">arrayExtension.js</text>
</a>
</g>
</g>
<!-- src/app.js&#45;&gt;src/arrayExtension.js -->
<g id="edge1" class="edge"><title>src/app.js&#45;&gt;src/arrayExtension.js</title>
<path fill="none" stroke="#999999" d="M95.228,-85C105.857,-85 118.477,-85 130.636,-85"/>
<polygon fill="#999999" stroke="#999999" points="130.812,-86.7501 135.812,-85 130.812,-83.2501 130.812,-86.7501"/>
</g>
<!-- test/arrayExtension.test.js -->
<g id="node3" class="node"><title>test/arrayExtension.test.js</title>
<g id="a_node3"><a xlink:href="test/arrayExtension.test.js" xlink:title="arrayExtension.test.js">
<path fill="#ffffcc" stroke="black" d="M114,-34C114,-34 22,-34 22,-34 19,-34 16,-31 16,-28 16,-28 16,-22 16,-22 16,-19 19,-16 22,-16 22,-16 114,-16 114,-16 117,-16 120,-19 120,-22 120,-22 120,-28 120,-28 120,-31 117,-34 114,-34"/>
<text text-anchor="middle" x="68" y="-22.8" font-family="Helvetica,sans-Serif" font-size="9.00">arrayExtension.test.js</text>
</a>
</g>
</g>
<!-- test/arrayExtension.test.js&#45;&gt;src/arrayExtension.js -->
<g id="edge2" class="edge"><title>test/arrayExtension.test.js&#45;&gt;src/arrayExtension.js</title>
<path fill="none" stroke="#999999" d="M85.6307,-34.1127C104.876,-44.658 136.596,-62.0389 157.52,-73.5039"/>
<polygon fill="#999999" stroke="#999999" points="156.846,-75.1301 162.072,-75.9981 158.528,-72.0607 156.846,-75.1301"/>
</g>
</g>
</svg>
